<svg width="34" height="34" viewBox="0 0 34 34" fill="none" xmlns="http://www.w3.org/2000/svg">
<path d="M19.7836 16.6052C19.7836 18.3606 18.3606 19.7836 16.6053 19.7836C14.8499 19.7836 13.4269 18.3606 13.4269 16.6052C13.4269 14.8499 14.8499 13.4269 16.6053 13.4269C18.3606 13.4269 19.7836 14.8499 19.7836 16.6052Z" fill="white"/>
<path d="M24.0383 10.9818C23.8855 10.5678 23.6417 10.1931 23.325 9.88546C23.0174 9.56874 22.6429 9.32499 22.2287 9.1722C21.8927 9.04171 21.388 8.88639 20.4583 8.84408C19.4527 8.79822 19.1512 8.78834 16.6052 8.78834C14.0591 8.78834 13.7575 8.79797 12.7522 8.84383C11.8225 8.88639 11.3175 9.04171 10.9818 9.1722C10.5675 9.32499 10.1928 9.56874 9.88546 9.88546C9.56874 10.1931 9.32499 10.5675 9.17195 10.9818C9.04146 11.3178 8.88614 11.8228 8.84383 12.7524C8.79797 13.7578 8.78809 14.0593 8.78809 16.6055C8.78809 19.1514 8.79797 19.4529 8.84383 20.4586C8.88614 21.3882 9.04146 21.8929 9.17195 22.2289C9.32499 22.6432 9.56848 23.0177 9.8852 23.3253C10.1928 23.642 10.5673 23.8857 10.9816 24.0385C11.3175 24.1693 11.8225 24.3246 12.7522 24.3669C13.7575 24.4128 14.0588 24.4224 16.605 24.4224C19.1514 24.4224 19.4529 24.4128 20.4581 24.3669C21.3877 24.3246 21.8927 24.1693 22.2287 24.0385C23.0602 23.7178 23.7175 23.0605 24.0383 22.2289C24.1688 21.8929 24.3241 21.3882 24.3666 20.4586C24.4125 19.4529 24.4221 19.1514 24.4221 16.6055C24.4221 14.0593 24.4125 13.7578 24.3666 12.7524C24.3243 11.8228 24.169 11.3178 24.0383 10.9818ZM16.6052 21.5015C13.901 21.5015 11.7087 19.3095 11.7087 16.6052C11.7087 13.901 13.901 11.709 16.6052 11.709C19.3093 11.709 21.5015 13.901 21.5015 16.6052C21.5015 19.3095 19.3093 21.5015 16.6052 21.5015ZM21.6951 12.6597C21.0631 12.6597 20.5508 12.1473 20.5508 11.5154C20.5508 10.8835 21.0631 10.3712 21.6951 10.3712C22.327 10.3712 22.8393 10.8835 22.8393 11.5154C22.839 12.1473 22.327 12.6597 21.6951 12.6597Z" fill="white"/>
<path d="M16.6052 0C7.43582 0 0 7.43582 0 16.6052C0 25.7747 7.43582 33.2105 16.6052 33.2105C25.7747 33.2105 33.2105 25.7747 33.2105 16.6052C33.2105 7.43582 25.7747 0 16.6052 0ZM26.0828 20.5364C26.0367 21.5514 25.8753 22.2444 25.6396 22.851C25.1443 24.1318 24.1318 25.1443 22.851 25.6396C22.2446 25.8753 21.5514 26.0364 20.5366 26.0828C19.5198 26.1291 19.195 26.1403 16.6055 26.1403C14.0157 26.1403 13.6912 26.1291 12.6741 26.0828C11.6593 26.0364 10.9661 25.8753 10.3598 25.6396C9.7233 25.4002 9.14712 25.0249 8.67078 24.5397C8.18581 24.0636 7.81056 23.4872 7.57112 22.851C7.33548 22.2446 7.17408 21.5514 7.12797 20.5366C7.0811 19.5196 7.0702 19.1947 7.0702 16.6052C7.0702 14.0157 7.0811 13.6909 7.12772 12.6741C7.17383 11.6591 7.33498 10.9661 7.57062 10.3595C7.81006 9.7233 8.18556 9.14687 8.67078 8.67078C9.14687 8.18556 9.7233 7.81031 10.3595 7.57087C10.9661 7.33523 11.6591 7.17408 12.6741 7.12772C13.6909 7.08135 14.0157 7.0702 16.6052 7.0702C19.1947 7.0702 19.5196 7.08135 20.5364 7.12797C21.5514 7.17408 22.2444 7.33523 22.851 7.57062C23.4872 7.81006 24.0636 8.18556 24.54 8.67078C25.0249 9.14712 25.4004 9.7233 25.6396 10.3595C25.8755 10.9661 26.0367 11.6591 26.083 12.6741C26.1294 13.6909 26.1403 14.0157 26.1403 16.6052C26.1403 19.1947 26.1294 19.5196 26.0828 20.5364Z" fill="white"/>
</svg>
