<svg width="35" height="35" viewBox="0 0 35 35" fill="none" xmlns="http://www.w3.org/2000/svg">
<path d="M17.5659 34.32C27.0431 34.32 34.7258 26.6372 34.7258 17.16C34.7258 7.68279 27.0431 0 17.5659 0C8.08867 0 0.405884 7.68279 0.405884 17.16C0.405884 26.6372 8.08867 34.32 17.5659 34.32Z" fill="white"/>
<path d="M23.7177 14.1754C18.7613 14.1754 18.7549 19.1131 18.7549 19.1385C18.7549 19.1385 18.4153 24.0823 23.7177 24.0823C23.7177 24.0823 28.1397 24.3338 28.1397 20.6417H25.869C25.869 20.6417 25.9443 22.0316 23.7933 22.0316C23.7933 22.0316 21.5226 22.1827 21.5226 19.7861H28.2152C28.2152 19.7861 28.9512 14.1754 23.7177 14.1754ZM21.4972 18.0562C21.4972 18.0562 21.7741 16.0686 23.7682 16.0686C25.7684 16.0686 25.7369 18.0562 25.7369 18.0562H21.4972ZM15.8241 16.7859C15.8241 16.7859 17.7929 16.6412 17.7929 14.3265C17.7929 12.0182 16.1826 10.8858 14.1384 10.8858H7.41391V23.8116H14.1377C14.1377 23.8116 18.2453 23.9376 18.2453 19.9938C18.2456 19.9938 18.4218 16.7859 15.8241 16.7859ZM10.3768 13.1815H14.138C14.138 13.1815 15.0502 13.1815 15.0502 14.5275C15.0502 15.8734 14.5155 16.0686 13.9053 16.0686H10.3768V13.1815ZM13.9496 21.5159H10.3768V18.0562H14.138C14.138 18.0562 15.5032 18.0437 15.4968 19.8362C15.4968 21.3461 14.4843 21.5034 13.9496 21.5159ZM20.9374 11.6469V13.2384H26.2716V11.6469H20.9374Z" fill="black"/>
</svg>
